# xmcd CD database file
#
# Track frame offsets:
#	182
#	12135
#	24320
#	36642
#	49700
#	62895
#	75172
#	88400
#	100992
#	112925
#	123905
#	134650
#	146880
#	156740
#	167722
#	178497
#	190205
#
# Disc length: 2690 seconds
#
# Revision: 1
# Processed by: cddbd v1.5.2PL0 Copyright (c) Steve Scherf et al.
# Submitted via: jetAudio 7
#
DISCID=f50a8011
DTITLE=Hank Williams - 16 Greatest Hits
DYEAR=1900
DGENRE=Country
TTITLE0=Take These Chains From My Heart
TTITLE1=Your Cheatin' Heart
TTITLE2=Lovesick Blues
TTITLE3=Jambalya ( On The Bayou )
TTITLE4=Wedding Bells
TTITLE5=Cold Cold Heart
TTITLE6=Hey, Good Lookin'
TTITLE7=I'm So Lonesome I Could Cry
TTITLE8=Long Gone Lonesome Blues
TTITLE9=I'll Never Get Out Of This World Alive
TTITLE10=Why Don't You Love Me
TTITLE11=Half As Much
TTITLE12=Honky Tonk Blues
TTITLE13=( I Heard That ) Lonesome Whistle
TTITLE14=Moanin' The Blues
TTITLE15=You Win Again
TTITLE16=Kaw-Liga
EXTD=
EXTT0=
EXTT1=
EXTT2=
EXTT3=
EXTT4=
EXTT5=
EXTT6=
EXTT7=
EXTT8=
EXTT9=
EXTT10=
EXTT11=
EXTT12=
EXTT13=
EXTT14=
EXTT15=
EXTT16=
PLAYORDER=
